HIERARCHY
ROOT joint_Root
{
	OFFSET 0.0 0.0 0.0
	CHANNELS 6 Xposition Yposition Zposition Zrotation Xrotation Yrotation 
	JOINT Hips
	{
		OFFSET 4.5925 91.4895 -427.239
		CHANNELS 6 Xposition Yposition Zposition Zrotation Xrotation Yrotation 
		JOINT Spine
		{
			OFFSET 15.7357 0.0 0.0
			CHANNELS 6 Xposition Yposition Zposition Zrotation Xrotation Yrotation 
			JOINT Chest
			{
				OFFSET 8.98455 -0.406207 0.0
				CHANNELS 6 Xposition Yposition Zposition Zrotation Xrotation Yrotation 
				JOINT Neck
				{
					OFFSET 16.3773 0.0 0.0
					CHANNELS 6 Xposition Yposition Zposition Zrotation Xrotation Yrotation 
					JOINT Head
					{
						OFFSET 6.45672 0.0 0.0
						CHANNELS 6 Xposition Yposition Zposition Zrotation Xrotation Yrotation 
						End Site
						{
							OFFSET 0.0 0.0 0.0
						}
					}
				}
				JOINT Shoulder_L
				{
					OFFSET 12.9942 -0.242716 4.98039
					CHANNELS 6 Xposition Yposition Zposition Zrotation Xrotation Yrotation 
					JOINT UpperArm_L
					{
						OFFSET 5.34809 0.0 0.0
						CHANNELS 6 Xposition Yposition Zposition Zrotation Xrotation Yrotation 
						JOINT LowerArm_L
						{
							OFFSET 24.3286 1.87007e-05 0.0
							CHANNELS 6 Xposition Yposition Zposition Zrotation Xrotation Yrotation 
							JOINT Hand_L
							{
								OFFSET 22.2916 0.0 0.0
								CHANNELS 6 Xposition Yposition Zposition Zrotation Xrotation Yrotation 
								End Site
								{
									OFFSET 0.0 0.0 0.0
								}
							}
						}
					}
				}
				JOINT Shoulder_R
				{
					OFFSET 12.9945 -0.242716 -4.98039
					CHANNELS 6 Xposition Yposition Zposition Zrotation Xrotation Yrotation 
					JOINT UpperArm_R
					{
						OFFSET -5.34813 0.0 0.0
						CHANNELS 6 Xposition Yposition Zposition Zrotation Xrotation Yrotation 
						JOINT LowerArm_R
						{
							OFFSET -24.3289 0.000322201 0.0
							CHANNELS 6 Xposition Yposition Zposition Zrotation Xrotation Yrotation 
							JOINT Hand_R
							{
								OFFSET -22.2915 -0.000108084 0.0
								CHANNELS 6 Xposition Yposition Zposition Zrotation Xrotation Yrotation 
								End Site
								{
									OFFSET 0.0 0.0 0.0
								}
							}
						}
					}
				}
			}
		}
		JOINT UpperLeg_L
		{
			OFFSET -2.19248 -6.46944 0.0
			CHANNELS 6 Xposition Yposition Zposition Zrotation Xrotation Yrotation 
			JOINT LowerLeg_L
			{
				OFFSET 39.0811 0.0 -1.23785e-05
				CHANNELS 6 Xposition Yposition Zposition Zrotation Xrotation Yrotation 
				JOINT Foot_L
				{
					OFFSET 40.9854 0.0 -1.26872e-05
					CHANNELS 6 Xposition Yposition Zposition Zrotation Xrotation Yrotation 
					JOINT Toes_L
					{
						OFFSET 11.7543 0.0 0.0
						CHANNELS 6 Xposition Yposition Zposition Zrotation Xrotation Yrotation 
						End Site
						{
							OFFSET 0.0 0.0 0.0
						}
					}
				}
			}
		}
		JOINT UpperLeg_R
		{
			OFFSET -2.19251 6.46944 0.0
			CHANNELS 6 Xposition Yposition Zposition Zrotation Xrotation Yrotation 
			JOINT LowerLeg_R
			{
				OFFSET -39.0811 -0.00228153 -0.0401928
				CHANNELS 6 Xposition Yposition Zposition Zrotation Xrotation Yrotation 
				JOINT Foot_R
				{
					OFFSET -40.9854 0.0 0.0
					CHANNELS 6 Xposition Yposition Zposition Zrotation Xrotation Yrotation 
					JOINT Toes_R
					{
						OFFSET -11.7543 0.0 0.0
						CHANNELS 6 Xposition Yposition Zposition Zrotation Xrotation Yrotation 
						End Site
						{
							OFFSET 0.0 0.0 0.0
						}
					}
				}
			}
		}
	}
}
MOTION
Frames:	9
Frame Time:	0.0333333
0.000000 0.000000 0.000000 0.000000 0.000000 -0.000000 -123.307000 86.790300 185.319000 96.655700 71.757200 -10.127100 15.735700 0.000005 -0.000001 124.350000 84.224300 -125.660000 8.984550 -0.406207 -0.000000 1.859890 6.581430 -2.725720 16.377300 -0.000001 -0.000001 -6.459620 0.925180 0.317333 6.456720 -0.000001 -0.000000 -15.898800 -0.890092 0.828054 12.994200 -0.242716 4.980390 -89.632100 -1.048200 -70.655300 5.348090 -0.000007 -0.000001 -70.713800 10.635000 19.334800 24.328600 0.000019 0.000005 0.190555 27.654200 -0.410406 22.291600 -0.000001 0.000005 9.193520 4.968830 7.975010 12.994500 -0.242716 -4.980390 89.607100 4.711340 -85.227700 -5.348130 -0.000001 -0.000004 -49.326100 24.626900 -40.929400 -24.328900 0.000322 -0.000009 -0.316917 -0.159817 -63.130700 -22.291500 -0.000108 -0.000004 21.802800 5.464690 -5.172200 -2.192480 -6.469440 -0.000000 175.017000 -16.533000 -40.248700 39.081100 -0.000007 -0.000012 0.157693 -0.251382 32.100200 40.985400 -0.000006 -0.000013 1.592070 4.887440 -61.039700 11.754300 -0.000000 0.000003 -0.005510 -0.066328 -19.275900 -2.192510 6.469440 -0.000001 172.250000 13.275600 -173.280000 -39.081100 -0.002282 -0.040193 -0.014429 0.030090 30.508100 -40.985400 0.000008 0.000006 10.553100 12.211000 -77.625100 -11.754300 -0.000006 -0.000006 -0.051988 -0.304780 -29.132900
0.000000 0.000000 0.000000 0.000000 0.000000 -0.000000 -118.654000 85.712400 185.402000 97.737300 70.855400 -12.085700 15.735700 0.000005 -0.000001 127.099000 84.485200 -128.912000 8.984550 -0.406207 -0.000000 1.150540 6.754800 -3.694520 16.377300 -0.000001 -0.000001 -6.052130 1.019150 0.343579 6.456720 -0.000001 -0.000000 -16.231300 -0.982960 0.980378 12.994200 -0.242716 4.980390 -89.833800 -0.457339 -70.024300 5.348090 -0.000007 -0.000001 -70.091000 11.277300 18.998100 24.328600 0.000019 0.000005 -0.000150 29.249800 -0.000003 22.291600 -0.000001 0.000005 11.412700 4.898840 9.397480 12.994500 -0.242716 -4.980390 89.534400 5.460050 -85.118600 -5.348130 -0.000001 -0.000004 -49.075300 24.088200 -38.853500 -24.328900 0.000322 -0.000009 -0.267656 -0.117023 -66.265900 -22.291500 -0.000108 -0.000004 22.504400 5.486590 -6.002100 -2.192480 -6.469440 -0.000000 173.890000 -16.648400 -42.988800 39.081100 -0.000007 -0.000012 0.075610 -0.098584 37.486000 40.985400 -0.000006 -0.000013 2.859410 5.120590 -52.064000 11.754300 -0.000000 0.000003 -0.005370 -0.065013 -19.222300 -2.192510 6.469440 -0.000001 170.854000 10.928600 -173.258000 -39.081100 -0.002282 -0.040193 0.004800 -0.002263 33.638900 -40.985400 0.000008 0.000006 9.806160 11.315500 -76.286500 -11.754300 -0.000006 -0.000006 -0.093470 -0.428060 -34.408000
0.000000 0.000000 0.000000 0.000000 0.000000 -0.000000 -113.366000 84.867400 185.752000 97.572300 70.810300 -11.432600 15.735700 0.000005 -0.000001 127.009000 84.722700 -129.047000 8.984550 -0.406207 -0.000000 0.788141 6.475070 -4.120680 16.377300 -0.000001 -0.000001 -5.502670 1.130650 0.382004 6.456720 -0.000001 -0.000000 -15.766500 -0.929642 1.014820 12.994200 -0.242716 4.980390 -90.092300 0.249143 -69.673900 5.348090 -0.000007 -0.000001 -69.516700 11.208900 17.544900 24.328600 0.000019 0.000005 -0.000045 31.578900 -0.000003 22.291600 -0.000001 0.000005 11.895000 4.798720 11.342200 12.994500 -0.242716 -4.980390 89.435000 6.191730 -84.776200 -5.348130 -0.000001 -0.000004 -50.798100 24.525600 -34.510300 -24.328900 0.000322 -0.000009 -0.137438 -0.057711 -66.995700 -22.291500 -0.000108 -0.000004 22.663200 5.499160 -6.499740 -2.192480 -6.469440 -0.000000 175.810000 -12.716900 -43.021900 39.081100 -0.000007 -0.000012 -0.084261 0.081460 45.969500 40.985400 -0.000006 -0.000013 1.738630 1.226000 -57.913300 11.754300 -0.000000 0.000003 -0.000003 -0.000045 -16.579300 -2.192510 6.469440 -0.000001 170.335000 8.757720 -173.387000 -39.081100 -0.002282 -0.040193 0.061764 -0.071057 39.456400 -40.985400 0.000008 0.000006 9.822690 9.724740 -70.503000 -11.754300 -0.000006 -0.000006 -0.208184 -0.658527 -44.859700
0.000000 0.000000 0.000000 0.000000 0.000000 -0.000000 -108.017000 84.555600 186.317000 97.703900 72.320000 -8.693800 15.735700 0.000005 -0.000001 119.571000 84.230200 -121.606000 8.984550 -0.406207 -0.000000 2.387830 5.785990 -4.188070 16.377300 -0.000001 -0.000001 -5.233370 0.602655 0.201926 6.456720 -0.000001 -0.000000 -15.893900 -0.907442 0.312371 12.994200 -0.242716 4.980390 -90.451000 1.259660 -70.299600 5.348090 -0.000007 -0.000001 -69.298000 11.782300 13.707100 24.328600 0.000019 0.000005 0.000118 31.806300 -0.000003 22.291600 -0.000001 0.000005 9.764140 4.776230 11.761500 12.994500 -0.242716 -4.980390 89.364000 6.506850 -84.405400 -5.348130 -0.000001 -0.000004 -55.110200 24.037700 -28.122900 -24.328900 0.000322 -0.000009 -0.008789 -0.003406 -65.296500 -22.291500 -0.000108 -0.000004 22.746000 5.500950 -6.571820 -2.192480 -6.469440 -0.000000 177.292000 -8.998390 -38.618900 39.081100 -0.000007 -0.000012 -0.233586 0.187788 51.203700 40.985400 -0.000006 -0.000013 0.851207 -0.993448 -64.367800 11.754300 -0.000000 0.000003 -0.000092 -0.000958 -16.614400 -2.192510 6.469440 -0.000001 169.626000 9.197430 -174.113000 -39.081100 -0.002282 -0.040193 0.157825 -0.134545 48.963000 -40.985400 0.000008 0.000006 10.218900 9.353970 -59.038400 -11.754300 -0.000006 -0.000006 -0.276215 -0.758834 -49.775200
0.000000 0.000000 0.000000 0.000000 0.000000 -0.000000 -103.315000 84.908800 186.581000 97.904500 72.447800 -7.003760 15.735700 0.000005 -0.000001 116.566000 83.772200 -118.640000 8.984550 -0.406207 -0.000000 3.494560 5.641080 -4.318540 16.377300 -0.000001 -0.000001 -4.939510 0.673393 -0.022185 6.456720 -0.000001 -0.000000 -15.588400 -0.896446 -0.686899 12.994200 -0.242716 4.980390 -90.828600 2.309190 -70.255800 5.348090 -0.000007 -0.000001 -69.275000 13.494600 7.789400 24.328600 0.000019 0.000005 -0.000126 30.792700 -0.000003 22.291600 -0.000001 0.000005 6.367220 4.860940 10.141100 12.994500 -0.242716 -4.980390 89.378900 6.752770 -84.732200 -5.348130 -0.000001 -0.000004 -59.982800 23.040100 -22.183300 -24.328900 0.000322 -0.000009 -1.347360 -0.801918 -59.262700 -22.291500 -0.000108 -0.000004 23.313400 5.510940 -6.979580 -2.192480 -6.469440 -0.000000 177.116000 -9.469990 -33.680900 39.081100 -0.000007 -0.000012 -0.309723 0.237800 52.484300 40.985400 -0.000006 -0.000013 1.335390 -0.883425 -68.747000 11.754300 -0.000000 0.000003 -0.000183 -0.001722 -16.642700 -2.192510 6.469440 -0.000001 169.586000 6.932540 -179.563000 -39.081100 -0.002282 -0.040193 0.232324 -0.130917 60.257500 -40.985400 0.000008 0.000006 4.584590 6.511030 -45.193100 -11.754300 -0.000006 -0.000006 -0.065974 -0.350717 -31.079700
0.000000 0.000000 0.000000 0.000000 0.000000 -0.000000 -99.308800 85.540300 186.930000 96.931400 73.272400 -4.914120 15.735700 0.000005 -0.000001 111.852000 83.770600 -113.677000 8.984550 -0.406207 -0.000000 3.885940 4.692620 -3.808140 16.377300 -0.000001 -0.000001 -4.441800 0.819191 -0.167937 6.456720 -0.000001 -0.000000 -14.501900 -0.303277 -1.454280 12.994200 -0.242716 4.980390 -91.183300 3.308410 -70.307100 5.348090 -0.000007 -0.000001 -69.374500 15.296800 2.301950 24.328600 0.000019 0.000005 0.137693 28.407500 -0.291580 22.291600 -0.000001 0.000005 5.296860 4.974700 7.853830 12.994500 -0.242716 -4.980390 89.335800 6.867330 -84.462400 -5.348130 -0.000001 -0.000004 -63.362800 23.560000 -18.792700 -24.328900 0.000322 -0.000009 -3.161960 -2.823360 -48.289400 -22.291500 -0.000108 -0.000004 23.751200 5.503340 -6.667410 -2.192480 -6.469440 -0.000000 177.468000 -10.005200 -28.976000 39.081100 -0.000007 -0.000012 -0.324856 0.255321 51.835200 40.985400 -0.000006 -0.000013 1.975850 0.069638 -71.652100 11.754300 -0.000000 0.000003 -0.000233 -0.002103 -16.656500 -2.192510 6.469440 -0.000001 170.564000 6.403570 174.396000 -39.081100 -0.002282 -0.040193 0.279946 -0.104731 69.277000 -40.985400 0.000008 0.000006 3.101350 1.108700 -39.538500 -11.754300 -0.000006 -0.000006 -0.027564 -0.206075 -25.009900
0.000000 0.000000 0.000000 0.000000 0.000000 -0.000000 -95.550700 86.622700 187.421000 96.006200 75.057400 -2.972860 15.735700 0.000005 -0.000001 105.166000 83.779500 -106.598000 8.984550 -0.406207 -0.000000 4.290340 3.292950 -2.984950 16.377300 -0.000001 -0.000001 -3.854790 0.648264 -0.284896 6.456720 -0.000001 -0.000000 -13.737500 0.417507 -1.916810 12.994200 -0.242716 4.980390 -91.493100 4.366200 -71.099200 5.348090 -0.000007 -0.000001 -69.013200 18.270100 -3.071100 24.328600 0.000019 0.000005 3.101690 23.605000 -7.713300 22.291600 -0.000001 0.000005 7.957140 5.067060 5.866010 12.994500 -0.242716 -4.980390 89.197400 7.253050 -83.668700 -5.348130 -0.000001 -0.000004 -65.293800 24.183900 -16.539700 -24.328900 0.000322 -0.000009 -2.450380 -3.447030 -35.410500 -22.291500 -0.000108 -0.000004 21.398000 5.439380 -4.243870 -2.192480 -6.469440 -0.000000 178.099000 -9.644350 -23.409500 39.081100 -0.000007 -0.000012 -0.297272 0.259278 48.906000 40.985400 -0.000006 -0.000013 2.463800 1.196080 -73.186800 11.754300 -0.000000 0.000003 -0.000257 -0.002287 -16.663200 -2.192510 6.469440 -0.000001 171.410000 8.342870 169.705000 -39.081100 -0.002282 -0.040193 0.280633 -0.075632 74.759800 -40.985400 0.000008 0.000006 5.305080 -1.377180 -43.887500 -11.754300 -0.000006 -0.000006 -0.023837 -0.187683 -24.249100
0.000000 0.000000 0.000000 0.000000 0.000000 -0.000000 -91.977300 87.908900 187.968000 93.853800 76.899300 -0.078912 15.735700 0.000005 -0.000001 98.917200 83.637800 -99.823600 8.984550 -0.406207 -0.000000 4.823370 1.991890 -1.894800 16.377300 -0.000001 -0.000001 -3.650440 0.487805 -0.261859 6.456720 -0.000001 -0.000000 -13.394100 0.989065 -1.908430 12.994200 -0.242716 4.980390 -91.646500 5.039300 -71.879400 5.348090 -0.000007 -0.000001 -67.004700 24.658700 -9.783480 24.328600 0.000019 0.000005 4.623230 16.809000 -15.630500 22.291600 -0.000001 0.000005 13.267900 5.133430 4.341870 12.994500 -0.242716 -4.980390 89.069300 7.894080 -83.254700 -5.348130 -0.000001 -0.000004 -66.131200 24.061500 -13.875300 -24.328900 0.000322 -0.000009 -0.172250 -0.381327 -23.727200 -22.291500 -0.000108 -0.000004 17.352600 5.347780 -1.292380 -2.192480 -6.469440 -0.000000 179.062000 -8.705000 -17.541300 39.081100 -0.000007 -0.000012 -0.272329 0.277359 44.476300 40.985400 -0.000006 -0.000013 2.628290 2.038290 -73.760700 11.754300 -0.000000 0.000003 -0.000227 -0.002058 -16.654900 -2.192510 6.469440 -0.000001 172.320000 10.864400 165.174000 -39.081100 -0.002282 -0.040193 0.303446 -0.072884 76.364600 -40.985400 0.000008 0.000006 4.449190 -3.420990 -45.884400 -11.754300 -0.000006 -0.000006 -0.022600 -0.181289 -23.985100
0.000000 0.000000 0.000000 0.000000 0.000000 -0.000000 -88.503100 89.102900 188.453000 91.462900 78.439500 2.712020 15.735700 0.000005 -0.000001 95.241300 83.443700 -95.646200 8.984550 -0.406207 -0.000000 5.297050 1.203930 -0.864639 16.377300 -0.000001 -0.000001 -3.538800 0.202546 -0.014849 6.456720 -0.000001 -0.000000 -13.274700 1.166040 -1.304390 12.994200 -0.242716 4.980390 -91.498200 4.805340 -72.661300 5.348090 -0.000007 -0.000001 -63.365900 29.713600 -18.540600 24.328600 0.000019 0.000005 5.676890 13.548900 -22.994700 22.291600 -0.000001 0.000005 17.732800 5.172460 3.404700 12.994500 -0.242716 -4.980390 89.001400 8.103500 -82.950800 -5.348130 -0.000001 -0.000004 -66.990600 23.090800 -10.268900 -24.328900 0.000322 -0.000009 1.258740 4.892240 -14.492600 -22.291500 -0.000108 -0.000004 13.510600 5.285450 0.482716 -2.192480 -6.469440 -0.000000 179.849000 -7.585940 -11.803900 39.081100 -0.000007 -0.000012 -0.248598 0.304042 39.271400 40.985400 -0.000006 -0.000013 2.604280 2.510210 -73.806100 11.754300 -0.000000 0.000003 -0.000211 -0.001937 -16.650500 -2.192510 6.469440 -0.000001 173.361000 13.251400 161.218000 -39.081100 -0.002282 -0.040193 0.283512 -0.077369 74.578600 -40.985400 0.000008 0.000006 4.712140 -4.231090 -48.982900 -11.754300 -0.000006 -0.000006 -0.021339 -0.174594 -23.708900
